<svg width="703" height="703" viewBox="0 0 703 703" fill="none" xmlns="http://www.w3.org/2000/svg">
<circle cx="351.5" cy="351.5" r="351.5" fill="#FFF7EE" fill-opacity="0.933333"/>
<circle cx="351.5" cy="351.5" r="350.5" stroke="#6B4B3A" stroke-opacity="0.933333" stroke-width="2"/>
<g opacity="0.35">
<path d="M120.933 382.856C113.198 383.363 110.169 394.675 110.169 394.675C119.788 416.403 145.326 418.654 155.5 418.654V421.388H83.799C83.799 421.388 96.4697 410.559 98.7125 400.673L159.003 286.987C159.003 286.987 161.326 276.641 174.633 277.218L175.222 277.407C174.968 278.196 174.772 279.033 174.633 279.917V285.054H173.847C171.43 285.643 172.587 294.917 172.587 294.917C171.604 300.526 179.627 304.968 188.205 308.067L188.009 308.597C181.176 305.97 174.633 306.088 174.633 306.088C147.234 306.83 141.395 330.491 141.395 330.491L141.522 333.578C135.973 336.736 136.979 343.464 136.979 343.464C136.979 343.464 138.447 359.148 161.638 360.044L161.581 361.858C158.933 361.729 157.245 361.776 157.245 361.776C118.412 364.686 120.933 382.856 120.933 382.856Z" fill="#F4E5D3"/>
<path d="M494.846 309.682C463.239 308.315 459.366 328.016 459.366 328.016C456.846 328.7 456.846 336.418 456.846 336.418C457.516 356.297 494.511 358.347 494.511 358.347C541.078 357.145 539.737 334.874 539.737 334.874C537.043 325.613 529.644 325.613 529.644 325.613C524.269 306.936 494.846 309.682 494.846 309.682ZM497.528 359.549C464.406 359.03 460.545 380.111 460.545 380.111C460.545 380.111 452.984 384.624 452.637 392.224C452.637 392.224 448.776 410.264 497.956 413.01C497.956 413.01 538.384 410.441 541.922 388.854C541.922 388.854 542.928 378.225 535.356 376.859C530.153 355.778 497.528 359.549 497.528 359.549ZM417.677 378.909C411.793 359.372 380.521 361.081 380.521 361.081C351.48 361.729 345.237 374.549 343.896 380.205L343.526 380.111C337.641 380.629 333.607 391.764 333.607 391.764C336.462 410.783 376.983 417.122 376.983 417.122C427.758 407.872 428.429 388.677 428.429 388.677C426.417 379.934 417.677 378.909 417.677 378.909ZM405.423 308.055C372.093 308.562 370.266 327.321 370.266 327.321C367.122 328.04 367.815 337.62 367.815 337.62C372.266 359.525 402.66 361.081 402.66 361.081C451.354 353.304 451.978 334.768 451.978 334.768C448.811 325.825 439.77 324.234 439.77 324.234H439.759C433.215 303.625 405.423 308.055 405.423 308.055ZM319.838 323.845C311.687 304.685 284.623 308.173 284.623 308.173C252.819 307.902 251.374 327.192 251.374 327.192C247.258 328.841 246.784 336.336 246.784 336.336C249.432 358.571 282.161 360.633 282.161 360.633C321.202 355.743 330.601 333.248 330.601 333.248C328.265 325.271 319.838 323.845 319.838 323.845ZM161.638 360.044C163.777 360.126 166.089 360.079 168.61 359.89C168.61 359.89 170.078 359.749 172.459 359.36C181.87 357.805 205.535 352.29 209.13 335.958C209.13 335.958 209.304 329.819 202.83 325.224C200.957 315.809 194.356 311.025 188.009 308.598L188.205 308.067C197.408 311.378 207.234 313.158 207.234 313.158C254.021 304.32 254.183 286.987 254.183 286.987C252.287 278.314 242.599 276.665 242.599 276.665C242.484 275.863 242.252 274.838 241.767 273.695H266.056L266.484 273.884C264.773 276.841 264.831 279.198 264.831 279.198C259.547 280.789 259.073 287.329 259.073 287.329C259.073 287.329 262.241 306.37 293.953 307.631C293.953 307.631 338.138 306.83 341.688 284.489C341.688 284.489 341.861 278.373 337.341 274.968H355.237L355.734 275.121C355.445 276.158 355.272 277.266 355.237 278.456V279.716C348.439 282.462 347.318 292.572 347.318 292.572C347.318 292.737 347.433 307.466 387.85 308.656C387.85 308.656 395.688 308.55 404.232 305.84C404.232 305.84 404.244 305.84 404.267 305.828C405.4 305.605 437.088 298.959 435.943 285.879C435.943 285.879 435.192 280.53 430.279 276.394L473.724 275.887C473.285 276.806 472.927 277.796 472.684 278.845L472.568 279.929L472.233 279.893C472.233 279.893 466.568 282.521 465.724 291.252C465.724 291.252 470.06 310.754 506.303 308.81C506.303 308.81 508.951 308.668 512.835 307.985C554.477 309.352 554.13 290.274 554.13 290.274C554.13 290.274 552.5 277.984 537.668 274.603C559.68 278.526 563.032 292.348 563.032 292.348C565.275 303.366 569.714 313.688 569.714 313.688C577.888 329.76 581.541 340.33 581.541 340.33C600.409 399.966 629.403 421.388 629.403 421.388H273.582C316.624 406.647 317.132 392.79 317.132 392.79C315.283 386.792 304.519 382.856 304.519 382.856C305.537 362.978 267.201 362.978 267.201 362.978C233.744 363.319 230.044 384.565 230.044 384.565V386.45C227.524 386.45 226.345 393.992 226.345 393.992C229.038 415.92 255.767 421.388 255.767 421.388H155.5V418.654C158.159 418.654 159.765 418.501 159.765 418.501C197.766 411.808 201.292 389.361 201.292 389.361C201.13 382.161 193.223 380.287 193.223 380.287C191.789 365.087 170.818 362.341 161.581 361.858L161.638 360.044Z" fill="#F4E5D3"/>
<path d="M424.047 289.874C424.047 289.874 431.285 276.488 421.781 274.39C421.562 273.707 421.273 272.953 420.914 272.163C425.065 272.941 428.082 274.544 430.279 276.394C435.192 280.53 435.944 285.879 435.944 285.879C437.088 298.959 405.4 305.605 404.267 305.828C412.117 303.342 420.556 298.664 424.047 289.874Z" fill="#A89176"/>
<path d="M537.783 276.005L537.668 274.603C552.5 277.984 554.13 290.274 554.13 290.274C554.13 290.274 554.477 309.352 512.835 307.985C522.465 306.264 539.702 301.162 543.055 286.386C543.055 286.386 543.425 279.552 537.783 276.005Z" fill="#A89176"/>
<path d="M535.356 376.859C542.928 378.225 541.922 388.854 541.922 388.854C538.385 410.441 497.956 413.01 497.956 413.01C448.776 410.264 452.638 392.224 452.638 392.224C452.984 384.624 460.545 380.111 460.545 380.111V390.221C460.545 390.221 466.938 408.733 498.291 407.531C498.291 407.531 529.309 407.354 536.038 387.652L535.356 376.859Z" fill="#AC8F6D"/>
<path d="M472.568 279.929L471.551 289.402C483.69 305.793 506.326 304.214 506.326 304.214C534.535 301.634 538.708 287.588 538.708 287.588L537.783 276.005C543.425 279.552 543.055 286.386 543.055 286.386C539.702 301.162 522.465 306.264 512.835 307.985C508.951 308.668 506.303 308.81 506.303 308.81C470.06 310.754 465.724 291.252 465.724 291.252C466.568 282.521 472.233 279.893 472.233 279.893L472.568 279.929Z" fill="#AC8F6D"/>
<path d="M459.366 328.016V338.468C477.355 355.601 494.511 353.209 494.511 353.209C524.269 350.805 529.645 336.418 529.645 336.418V325.613C529.645 325.613 537.044 325.613 539.737 334.874C539.737 334.874 541.078 357.145 494.511 358.347C494.511 358.347 457.516 356.297 456.846 336.418C456.846 336.418 456.846 328.7 459.366 328.016Z" fill="#AC8F6D"/>
<path d="M355.237 279.716V288.743C355.237 288.743 362.278 304.143 388.902 304.143C388.902 304.143 416.047 302.564 422.568 288.743V277.619C422.568 277.619 422.417 276.288 421.781 274.39C431.284 276.488 424.047 289.874 424.047 289.874C420.556 298.664 412.117 303.342 404.267 305.828C404.244 305.84 404.232 305.84 404.232 305.84C395.689 308.55 387.85 308.656 387.85 308.656C347.433 307.466 347.318 292.737 347.318 292.572C347.318 292.572 348.439 282.462 355.237 279.716Z" fill="#AC8F6D"/>
<path d="M370.266 336.548C370.266 336.548 378.22 356.155 405.307 354.081C405.307 354.081 434.313 352.055 441.308 336.548L440.348 326.379C440.175 325.636 439.99 324.917 439.759 324.234H439.77C439.77 324.234 448.811 325.825 451.978 334.768C451.978 334.768 451.354 353.304 402.66 361.081C402.66 361.081 372.266 359.525 367.815 337.62C367.815 337.62 367.122 328.04 370.266 327.321V336.548Z" fill="#AC8F6D"/>
<path d="M343.526 382.856V392.966C352.775 409.074 380.602 409.239 380.602 409.239C412.463 406.152 418.683 390.563 418.683 390.563L417.677 378.909C417.677 378.909 426.417 379.934 428.429 388.677C428.429 388.677 427.759 407.872 376.983 417.122C376.983 417.122 336.462 410.783 333.607 391.764C333.607 391.764 337.641 380.629 343.526 380.111L343.896 380.205C343.514 381.819 343.526 382.856 343.526 382.856Z" fill="#AC8F6D"/>
<path d="M255.767 421.388C255.767 421.388 229.038 415.92 226.345 393.992C226.345 393.992 227.524 386.45 230.044 386.45V395.358C234.079 411.985 267.293 413.693 267.293 413.693C304.207 407.696 304.543 395.358 304.543 395.358L304.519 382.856C304.519 382.856 315.283 386.792 317.132 392.79C317.132 392.79 316.624 406.647 273.583 421.388H255.767Z" fill="#AC8F6D"/>
<path d="M319.838 323.845C319.838 323.845 328.265 325.271 330.601 333.248C330.601 333.248 321.202 355.743 282.161 360.633C282.161 360.633 249.432 358.571 246.784 336.336C246.784 336.336 247.258 328.841 251.374 327.192V335.77C259.432 353.221 285.617 352.656 285.617 352.656C315.063 350.982 321.132 334.792 321.132 334.792L319.861 324.046L319.838 323.845Z" fill="#AC8F6D"/>
<path d="M337.341 274.968C341.861 278.373 341.688 284.489 341.688 284.489C338.138 306.83 293.953 307.631 293.953 307.631C262.241 306.371 259.073 287.329 259.073 287.329C259.073 287.329 259.547 280.789 264.831 279.198V288.731C274.785 302.447 298.646 302.93 298.646 302.93C326.612 300.997 333.491 285.479 333.491 285.479L332.462 275.911V275.793C332.404 274.744 332.208 273.778 331.884 272.882C334.208 273.177 335.988 273.954 337.341 274.968Z" fill="#AC8F6D"/>
<path d="M172.586 294.917C172.586 294.917 171.43 285.644 173.847 285.054H174.633V290.251C181.246 305.569 209.917 306.088 209.917 306.088C239.374 302.081 243.628 288.908 243.628 288.908L242.68 278.361C242.68 278.361 242.738 277.713 242.599 276.665C242.599 276.665 252.287 278.314 254.183 286.987C254.183 286.987 254.021 304.32 207.234 313.158C207.234 313.158 197.408 311.378 188.205 308.067C179.627 304.968 171.604 300.526 172.586 294.917Z" fill="#AC8F6D"/>
<path d="M168.61 359.89C166.089 360.079 163.777 360.126 161.638 360.044C138.447 359.148 136.979 343.464 136.979 343.464C136.979 343.464 135.973 336.736 141.522 333.578L141.823 341.002C141.823 341.002 150.367 358.406 171.037 356.627C171.037 356.627 171.396 356.579 172.032 356.462L172.459 359.36C170.078 359.749 168.61 359.89 168.61 359.89Z" fill="#A89176"/>
<path d="M202.83 325.224C209.304 329.819 209.13 335.959 209.13 335.959C205.535 352.29 181.87 357.805 172.459 359.36L172.032 356.462C177.257 355.542 201.315 350.464 204.506 334.969L203.304 328.889C203.223 327.592 203.061 326.367 202.83 325.224Z" fill="#AC8F6D"/>
<path d="M193.223 380.287C193.223 380.287 201.13 382.161 201.292 389.361C201.292 389.361 197.766 411.808 159.766 418.501C159.766 418.501 158.159 418.654 155.5 418.654C145.326 418.654 119.788 416.403 110.169 394.675C110.169 394.675 113.198 383.363 120.933 382.856L120.898 395.017C128.424 409.581 157.06 411.301 157.06 411.301C186.298 408.391 194.229 392.625 194.229 392.625L193.223 380.335V380.287Z" fill="#AC8F6D"/>
<path d="M535.356 376.859L536.038 387.652C529.309 407.354 498.291 407.531 498.291 407.531C466.938 408.733 460.545 390.221 460.545 390.221V380.111C463.401 399.989 496.696 399.306 496.696 399.306C533.344 399.471 535.356 376.859 535.356 376.859Z" fill="#BE9E78"/>
<path d="M459.366 328.016C463.909 346.528 494.511 346.163 494.511 346.163C529.471 343.924 529.645 325.613 529.645 325.613V336.418C529.645 336.418 524.269 350.805 494.511 353.209C494.511 353.209 477.355 355.601 459.366 338.468V328.016Z" fill="#BE9E78"/>
<path d="M472.568 279.929L472.684 278.845C472.684 278.845 475.91 297.403 503.841 296.72C503.841 296.72 535.991 295.919 537.598 275.899C537.656 275.934 537.726 275.969 537.783 276.005L538.708 287.588C538.708 287.588 534.535 301.634 506.326 304.214C506.326 304.214 483.69 305.793 471.551 289.402L472.568 279.929Z" fill="#BE9E78"/>
<path d="M355.237 278.456C355.237 278.456 359.202 297.12 387.908 296.284C387.908 296.284 421.909 295.106 422.568 277.619V288.743C416.047 302.564 388.902 304.143 388.902 304.143C362.278 304.143 355.237 288.743 355.237 288.743V278.456Z" fill="#BE9E78"/>
<path d="M440.348 326.379L441.308 336.548C434.314 352.055 405.307 354.081 405.307 354.081C378.22 356.155 370.266 336.548 370.266 336.548V327.321C376.209 346.399 404.232 346.163 404.232 346.163C439.1 344.772 440.348 326.379 440.348 326.379Z" fill="#BE9E78"/>
<path d="M417.677 378.909L418.683 390.563C418.683 390.563 412.463 406.152 380.602 409.239C380.602 409.239 352.775 409.074 343.526 392.966V382.856C348.231 401.356 379.677 400.673 379.677 400.673C416.163 399.812 417.677 378.909 417.677 378.909Z" fill="#BE9E78"/>
<path d="M120.898 395.017L120.933 382.856C123.453 401.356 156.401 402.122 156.401 402.122C192.737 400.861 193.223 381.36 193.223 380.335L194.229 392.625C194.229 392.625 186.298 408.391 157.06 411.301C157.06 411.301 128.424 409.581 120.898 395.017Z" fill="#BE9E78"/>
<path d="M141.395 330.491C142.494 349.922 169.43 350.24 169.43 350.24C199.049 348.955 203.304 328.888 203.304 328.888L204.506 334.969C201.315 350.464 177.257 355.542 172.032 356.461C171.396 356.579 171.037 356.626 171.037 356.626C150.367 358.406 141.823 341.002 141.823 341.002L141.522 333.578L141.395 330.491Z" fill="#BE9E78"/>
<path d="M208.668 297.898C208.668 297.898 239.374 296.555 242.68 278.361L243.628 288.908C243.628 288.908 239.374 302.081 209.917 306.088C209.917 306.088 181.246 305.569 174.633 290.251V279.917C174.633 279.917 177.8 300.314 208.668 297.898Z" fill="#BE9E78"/>
<path d="M332.462 275.911L333.491 285.479C333.491 285.479 326.612 300.997 298.647 302.93C298.647 302.93 274.785 302.447 264.831 288.731V279.198C269.386 296.084 298.635 294.575 298.635 294.575C332.67 291.453 332.566 277.372 332.462 275.911Z" fill="#BE9E78"/>
<path d="M319.861 324.046L321.132 334.792C321.132 334.792 315.063 350.982 285.617 352.656C285.617 352.656 259.432 353.221 251.374 335.77V327.192C256.23 344.608 285.606 344.831 285.606 344.831C319.895 340.177 319.999 325.919 319.861 324.046Z" fill="#BE9E78"/>
<path d="M230.044 384.565C232.391 405.304 265.848 405.304 265.848 405.304C303.352 404.267 304.519 382.856 304.519 382.856L304.543 395.358C304.543 395.358 304.207 407.696 267.293 413.693C267.293 413.693 234.079 411.985 230.044 395.358V384.565Z" fill="#BE9E78"/>
<path d="M202.83 325.224C203.061 326.367 203.223 327.592 203.304 328.889C203.304 328.889 199.049 348.956 169.43 350.24C169.43 350.24 142.494 349.922 141.395 330.491C141.395 330.491 147.234 306.83 174.633 306.088C174.633 306.088 181.176 305.97 188.009 308.598C194.356 311.025 200.957 315.809 202.83 325.224Z" fill="#D3B188"/>
<path d="M193.223 380.287V380.335C193.223 381.36 192.737 400.861 156.401 402.122C156.401 402.122 123.453 401.356 120.933 382.856C120.933 382.856 118.412 364.686 157.245 361.776C157.245 361.776 158.933 361.729 161.581 361.858C170.818 362.341 191.789 365.087 193.223 380.287Z" fill="#D3B188"/>
<path d="M267.201 362.978C267.201 362.978 305.537 362.978 304.519 382.856C304.519 382.856 303.352 404.267 265.848 405.304C265.848 405.304 232.391 405.304 230.044 384.565C230.044 384.565 233.744 363.32 267.201 362.978Z" fill="#D3B188"/>
<path d="M319.861 324.045C319.999 325.919 319.895 340.177 285.606 344.831C285.606 344.831 256.23 344.607 251.374 327.192C251.374 327.192 252.819 307.902 284.623 308.173C284.623 308.173 311.687 304.685 319.838 323.845L319.861 324.045Z" fill="#D3B188"/>
<path d="M497.528 359.549C497.528 359.549 530.153 355.778 535.356 376.859C535.356 376.859 533.344 399.471 496.696 399.306C496.696 399.306 463.401 399.989 460.545 380.111C460.545 380.111 464.406 359.03 497.528 359.549Z" fill="#D3B188"/>
<path d="M417.677 378.909C417.677 378.909 416.163 399.813 379.677 400.673C379.677 400.673 348.231 401.356 343.526 382.856C343.526 382.856 343.514 381.819 343.896 380.205C345.237 374.549 351.48 361.729 380.521 361.081C380.521 361.081 411.793 359.372 417.677 378.909Z" fill="#D3B188"/>
<path d="M439.759 324.234C439.99 324.917 440.175 325.636 440.348 326.379C440.348 326.379 439.1 344.772 404.232 346.163C404.232 346.163 376.209 346.399 370.266 327.321C370.266 327.321 372.093 308.562 405.423 308.055C405.423 308.055 433.215 303.625 439.759 324.234Z" fill="#D3B188"/>
<path d="M529.645 325.613C529.645 325.613 529.471 343.924 494.511 346.163C494.511 346.163 463.909 346.528 459.366 328.016C459.366 328.016 463.239 308.315 494.846 309.682C494.846 309.682 524.269 306.936 529.645 325.613Z" fill="#D3B188"/>
<path d="M510.708 262.301C532.616 262.348 537.668 274.603 537.668 274.603C537.656 275.039 537.645 275.475 537.598 275.899C535.991 295.919 503.841 296.72 503.841 296.72C475.91 297.403 472.684 278.845 472.684 278.845C472.927 277.796 473.285 276.806 473.725 275.887C479.563 263.726 501.205 262.395 508.373 262.301C508.523 262.289 508.662 262.289 508.789 262.301H510.708Z" fill="#D3B188"/>
<path d="M421.782 274.39C422.417 276.288 422.568 277.619 422.568 277.619C421.909 295.106 387.908 296.284 387.908 296.284C359.202 297.121 355.237 278.456 355.237 278.456C355.272 277.266 355.445 276.158 355.734 275.121C358.52 265.294 371.769 262.089 371.769 262.089C371.769 262.089 392.22 255.726 408.463 262.089C415.562 263.609 419.134 268.322 420.914 272.163C421.273 272.953 421.562 273.707 421.782 274.39Z" fill="#D3B188"/>
<path d="M332.462 275.91C332.566 277.372 332.67 291.453 298.635 294.575C298.635 294.575 269.386 296.084 264.831 279.198C264.831 279.198 264.773 276.841 266.484 273.884C269.27 269.053 276.773 262.595 296.912 262.242C297.421 262.242 297.93 262.242 298.45 262.242C301.386 262.242 304.277 262.23 307.132 262.23H307.155C316.08 262.69 329.04 264.775 331.884 272.894C332.208 273.789 332.404 274.756 332.451 275.804V275.922L332.462 275.91Z" fill="#D3B188"/>
<path d="M242.68 278.361C239.374 296.555 208.668 297.898 208.668 297.898C177.8 300.314 174.633 279.917 174.633 279.917C174.772 279.033 174.968 278.196 175.222 277.407C179.188 264.811 196.402 262.737 204.032 262.442C204.055 262.454 204.078 262.454 204.102 262.442C205.281 262.442 206.495 262.442 207.709 262.442C211.443 262.43 215.327 262.43 219.339 262.419C234.668 263.526 239.952 269.406 241.767 273.707C242.252 274.85 242.484 275.875 242.599 276.676C242.738 277.725 242.68 278.373 242.68 278.373V278.361Z" fill="#D3B188"/>
<path d="M640.039 413.493C640.039 413.493 644.71 420.94 633.797 421.388H629.403C629.403 421.388 600.409 399.966 581.541 340.33C581.541 340.33 577.888 329.76 569.715 313.688C569.715 313.688 565.275 303.366 563.032 292.348C563.032 292.348 559.68 278.526 537.668 274.602C537.668 274.602 532.616 262.348 510.708 262.301L551.021 262.383C551.021 262.383 555.957 263.196 557.957 267.45L640.039 413.493Z" fill="#89765F"/>
<path d="M408.463 262.089L508.373 262.301C501.205 262.395 479.563 263.727 473.725 275.887L430.279 276.394C428.082 274.544 425.065 272.941 420.914 272.163C419.134 268.322 415.562 263.609 408.463 262.089Z" fill="#89765F"/>
<path d="M371.769 262.089C371.769 262.089 358.52 265.294 355.734 275.121L355.237 274.968H337.341C335.988 273.954 334.208 273.177 331.884 272.882C329.04 264.763 316.08 262.678 307.155 262.218C343.144 262.148 371.769 262.089 371.769 262.089Z" fill="#89765F"/>
<path d="M219.339 262.407C243.119 262.348 271.293 262.289 296.912 262.242C276.773 262.595 269.27 269.053 266.484 273.884L266.056 273.695H241.767C239.952 269.394 234.668 263.514 219.339 262.407Z" fill="#89765F"/>
<path d="M159.002 286.987L98.7124 400.673C96.4696 410.559 83.7989 421.388 83.7989 421.388H76.9086C76.9086 421.388 68.6888 421.282 71.3016 413.493L155.835 267.379C155.835 267.379 157.557 262.713 164.24 262.584C166.031 262.548 181.858 262.501 204.032 262.442C196.402 262.737 179.188 264.811 175.222 277.407L174.633 277.218C161.326 276.641 159.002 286.987 159.002 286.987Z" fill="#89765F"/>
<path d="M614.49 354.234C623.877 359.443 622.918 351.277 622.918 351.277L602.2 316.952C594.617 313.146 593.09 319.627 593.09 319.627L614.49 354.234ZM110.712 316.516L87.4172 352.408C89.9953 359.726 97.8452 353.928 97.8452 353.928L119.926 318.307C116.863 312.462 110.712 316.516 110.712 316.516ZM43.4627 417.334L138.216 267.049C138.216 267.049 143.314 255.36 150.967 254.924H559.795C559.795 254.924 567.252 253.722 571.402 261.016L666.04 417.334C666.04 417.334 667.693 420.575 667.092 424.31C666.398 428.517 662.814 433.348 650.687 434.821H57.1508C57.1508 434.821 44.2373 432.983 43.3125 421.388C43.22 420.162 43.2547 418.807 43.4627 417.334ZM633.796 421.388C644.71 420.94 640.039 413.493 640.039 413.493L557.957 267.45C555.957 263.196 551.02 262.383 551.02 262.383L510.708 262.301H510.592C510.338 262.289 509.713 262.277 508.788 262.301C508.661 262.289 508.523 262.289 508.372 262.301L408.463 262.089C392.22 255.726 371.769 262.089 371.769 262.089C371.769 262.089 343.144 262.148 307.155 262.218H307.132C302.161 261.971 298.45 262.23 298.45 262.23C297.929 262.23 297.421 262.23 296.912 262.23C271.293 262.277 243.119 262.336 219.339 262.395C215.974 262.148 212.113 262.136 207.708 262.419C207.708 262.419 206.321 262.348 204.101 262.419C204.078 262.43 204.055 262.43 204.032 262.419C181.858 262.477 166.031 262.525 164.239 262.56C157.557 262.69 155.835 267.356 155.835 267.356L71.3014 413.469C68.6886 421.258 76.9084 421.364 76.9084 421.364H633.796V421.388Z" fill="#A89176"/>
<path d="M43.3127 421.388C44.2376 432.983 57.1511 434.821 57.1511 434.821H650.687C662.814 433.348 666.398 428.517 667.092 424.31H667.219C667.289 440.948 648.964 442.857 648.964 442.857L58.4228 442.362C42.515 440.972 43.2665 421.388 43.2665 421.388H43.3127Z" fill="#89765F"/>
</g>
<path d="M85.4529 285.52C86.3729 285.56 87.5529 285.6 88.9929 285.64C90.4729 285.68 91.9329 285.7 93.3729 285.7C95.2929 285.7 97.1129 285.68 98.8329 285.64C100.593 285.6 101.833 285.58 102.553 285.58C107.033 285.58 110.373 286.46 112.573 288.22C114.813 289.98 115.933 292.24 115.933 295C115.933 296.4 115.593 297.8 114.913 299.2C114.273 300.56 113.213 301.8 111.733 302.92C110.253 304 108.293 304.86 105.853 305.5V305.62C109.213 305.98 111.853 306.7 113.773 307.78C115.693 308.86 117.053 310.16 117.853 311.68C118.653 313.16 119.053 314.72 119.053 316.36C119.053 318.72 118.453 320.78 117.253 322.54C116.053 324.26 114.313 325.6 112.033 326.56C109.793 327.52 107.093 328 103.933 328C103.053 328 101.713 327.98 99.9129 327.94C98.1529 327.86 96.0129 327.82 93.4929 327.82C91.9729 327.82 90.4729 327.84 88.9929 327.88C87.5529 327.88 86.3729 327.92 85.4529 328V326.8C86.8129 326.72 87.8329 326.56 88.5129 326.32C89.1929 326.08 89.6329 325.6 89.8329 324.88C90.0729 324.16 90.1929 323.08 90.1929 321.64V291.88C90.1929 290.4 90.0729 289.32 89.8329 288.64C89.6329 287.92 89.1729 287.44 88.4529 287.2C87.7729 286.92 86.7729 286.76 85.4529 286.72V285.52ZM101.293 286.72C99.5729 286.72 98.4329 287.06 97.8729 287.74C97.3529 288.42 97.0929 289.8 97.0929 291.88V321.64C97.0929 323.04 97.2129 324.1 97.4529 324.82C97.6929 325.54 98.1129 326.02 98.7129 326.26C99.3529 326.5 100.273 326.62 101.473 326.62C105.073 326.62 107.673 325.72 109.273 323.92C110.913 322.08 111.733 319.48 111.733 316.12C111.733 313.04 110.913 310.66 109.273 308.98C107.673 307.3 105.013 306.46 101.293 306.46H95.4729C95.4729 306.46 95.4729 306.3 95.4729 305.98C95.4729 305.62 95.4729 305.44 95.4729 305.44H100.633C102.833 305.44 104.533 305 105.733 304.12C106.933 303.2 107.753 302 108.193 300.52C108.633 299 108.853 297.38 108.853 295.66C108.853 292.7 108.273 290.48 107.113 289C105.953 287.48 104.013 286.72 101.293 286.72ZM130.853 328.42C129.173 328.42 127.733 328.1 126.533 327.46C125.333 326.82 124.433 325.94 123.833 324.82C123.233 323.7 122.933 322.42 122.933 320.98C122.933 319.22 123.333 317.8 124.133 316.72C124.933 315.6 125.953 314.7 127.193 314.02C128.473 313.34 129.813 312.78 131.213 312.34C132.653 311.86 133.993 311.42 135.233 311.02C136.513 310.58 137.553 310.08 138.353 309.52C139.193 308.96 139.613 308.22 139.613 307.3V303.22C139.613 301.78 139.373 300.64 138.893 299.8C138.453 298.92 137.833 298.3 137.033 297.94C136.273 297.58 135.353 297.4 134.273 297.4C133.353 297.4 132.373 297.54 131.333 297.82C130.293 298.06 129.473 298.56 128.873 299.32C129.753 299.56 130.473 300.04 131.033 300.76C131.633 301.44 131.933 302.3 131.933 303.34C131.933 304.46 131.553 305.34 130.793 305.98C130.073 306.62 129.153 306.94 128.033 306.94C126.793 306.94 125.873 306.56 125.273 305.8C124.673 305 124.373 304.08 124.373 303.04C124.373 301.96 124.633 301.08 125.153 300.4C125.713 299.72 126.433 299.08 127.313 298.48C128.273 297.84 129.493 297.3 130.973 296.86C132.493 296.42 134.173 296.2 136.013 296.2C137.733 296.2 139.213 296.4 140.453 296.8C141.733 297.16 142.793 297.76 143.633 298.6C144.633 299.52 145.293 300.68 145.613 302.08C145.933 303.44 146.093 305.1 146.093 307.06V323.62C146.093 324.62 146.213 325.34 146.453 325.78C146.733 326.18 147.173 326.38 147.773 326.38C148.173 326.38 148.553 326.28 148.913 326.08C149.313 325.88 149.773 325.58 150.293 325.18L150.893 326.2C150.053 326.88 149.193 327.42 148.313 327.82C147.473 328.22 146.393 328.42 145.073 328.42C143.793 328.42 142.753 328.22 141.953 327.82C141.153 327.42 140.553 326.84 140.153 326.08C139.793 325.32 139.613 324.38 139.613 323.26C138.573 324.94 137.333 326.22 135.893 327.1C134.453 327.98 132.773 328.42 130.853 328.42ZM133.733 325.54C134.853 325.54 135.893 325.22 136.853 324.58C137.853 323.94 138.773 322.98 139.613 321.7V309.76C139.173 310.4 138.533 310.96 137.693 311.44C136.853 311.88 135.953 312.34 134.993 312.82C134.033 313.3 133.113 313.86 132.233 314.5C131.393 315.1 130.693 315.88 130.133 316.84C129.573 317.8 129.293 319.02 129.293 320.5C129.293 322.06 129.693 323.3 130.493 324.22C131.293 325.1 132.373 325.54 133.733 325.54ZM163.306 339.28C161.066 339.28 158.986 339.06 157.066 338.62C155.186 338.18 153.666 337.5 152.506 336.58C151.386 335.7 150.826 334.56 150.826 333.16C150.826 331.84 151.386 330.68 152.506 329.68C153.626 328.68 155.206 327.92 157.246 327.4L157.666 328.36C156.826 328.72 156.166 329.3 155.686 330.1C155.246 330.9 155.026 331.78 155.026 332.74C155.026 334.5 155.846 335.86 157.486 336.82C159.126 337.78 161.286 338.26 163.966 338.26C165.766 338.26 167.466 338.02 169.066 337.54C170.706 337.1 172.026 336.36 173.026 335.32C174.066 334.28 174.586 332.94 174.586 331.3C174.586 330.02 174.126 328.94 173.206 328.06C172.286 327.22 170.466 326.8 167.746 326.8H163.546C162.146 326.8 160.846 326.68 159.646 326.44C158.446 326.2 157.466 325.74 156.706 325.06C155.986 324.34 155.626 323.34 155.626 322.06C155.626 320.62 156.226 319.26 157.426 317.98C158.626 316.7 160.646 315.44 163.486 314.2L164.206 314.74C163.046 315.38 162.006 316.04 161.086 316.72C160.206 317.36 159.766 318.16 159.766 319.12C159.766 320.4 160.686 321.04 162.526 321.04H169.666C171.546 321.04 173.246 321.3 174.766 321.82C176.286 322.3 177.506 323.08 178.426 324.16C179.346 325.24 179.806 326.66 179.806 328.42C179.806 330.3 179.186 332.06 177.946 333.7C176.746 335.38 174.926 336.72 172.486 337.72C170.046 338.76 166.986 339.28 163.306 339.28ZM163.666 315.22C161.626 315.22 159.766 314.9 158.086 314.26C156.406 313.58 155.086 312.54 154.126 311.14C153.166 309.74 152.686 307.94 152.686 305.74C152.686 303.54 153.166 301.74 154.126 300.34C155.086 298.9 156.406 297.86 158.086 297.22C159.766 296.54 161.626 296.2 163.666 296.2C165.786 296.2 167.666 296.54 169.306 297.22C170.946 297.86 172.246 298.9 173.206 300.34C174.166 301.74 174.646 303.54 174.646 305.74C174.646 307.94 174.166 309.74 173.206 311.14C172.246 312.54 170.946 313.58 169.306 314.26C167.666 314.9 165.786 315.22 163.666 315.22ZM163.666 314.14C165.066 314.14 166.146 313.54 166.906 312.34C167.666 311.14 168.046 308.94 168.046 305.74C168.046 302.54 167.666 300.34 166.906 299.14C166.146 297.9 165.066 297.28 163.666 297.28C162.346 297.28 161.286 297.9 160.486 299.14C159.686 300.34 159.286 302.54 159.286 305.74C159.286 308.94 159.686 311.14 160.486 312.34C161.286 313.54 162.346 314.14 163.666 314.14ZM172.546 301.24L171.466 300.82C172.026 299.42 172.986 298.2 174.346 297.16C175.706 296.12 177.126 295.6 178.606 295.6C179.726 295.6 180.606 295.92 181.246 296.56C181.926 297.16 182.266 298.02 182.266 299.14C182.266 300.38 181.926 301.26 181.246 301.78C180.606 302.3 179.926 302.56 179.206 302.56C178.566 302.56 177.966 302.34 177.406 301.9C176.886 301.46 176.586 300.78 176.506 299.86C176.426 298.9 176.726 297.68 177.406 296.2L178.066 296.44C176.466 297.08 175.286 297.76 174.526 298.48C173.806 299.16 173.146 300.08 172.546 301.24ZM210.908 297.04V298.24C210.148 298.36 209.428 298.76 208.748 299.44C208.108 300.08 207.508 301.2 206.948 302.8L197.468 328.24C197.148 328.24 196.808 328.24 196.448 328.24C196.128 328.24 195.808 328.24 195.488 328.24L184.568 301.66C183.928 300.1 183.288 299.16 182.648 298.84C182.048 298.48 181.528 298.3 181.088 298.3V297.04C182.048 297.12 183.028 297.2 184.028 297.28C185.068 297.32 186.208 297.34 187.448 297.34C188.688 297.34 189.988 297.32 191.348 297.28C192.748 297.2 194.048 297.12 195.248 297.04V298.3C194.288 298.3 193.428 298.36 192.668 298.48C191.948 298.6 191.468 298.96 191.228 299.56C191.028 300.12 191.168 301.1 191.648 302.5L199.028 321.1L198.548 321.58L204.728 305.2C205.328 303.6 205.568 302.32 205.448 301.36C205.328 300.36 204.908 299.62 204.188 299.14C203.468 298.62 202.428 298.32 201.068 298.24V297.04C201.748 297.08 202.368 297.12 202.928 297.16C203.528 297.16 204.088 297.18 204.608 297.22C205.168 297.22 205.748 297.22 206.348 297.22C207.228 297.22 208.048 297.2 208.808 297.16C209.608 297.12 210.308 297.08 210.908 297.04ZM219.566 328.42C216.926 328.42 215.006 327.76 213.806 326.44C212.646 325.08 212.066 323.36 212.066 321.28C212.066 319.56 212.466 318.16 213.266 317.08C214.066 316 215.086 315.12 216.326 314.44C217.606 313.72 218.946 313.12 220.346 312.64C221.786 312.12 223.126 311.64 224.366 311.2C225.646 310.72 226.686 310.18 227.486 309.58C228.326 308.98 228.746 308.22 228.746 307.3V303.22C228.746 301.78 228.506 300.64 228.026 299.8C227.586 298.92 226.966 298.3 226.166 297.94C225.406 297.58 224.486 297.4 223.406 297.4C222.486 297.4 221.506 297.54 220.466 297.82C219.426 298.06 218.606 298.56 218.006 299.32C218.886 299.56 219.606 300.04 220.166 300.76C220.766 301.44 221.066 302.3 221.066 303.34C221.066 304.46 220.686 305.34 219.926 305.98C219.206 306.62 218.286 306.94 217.166 306.94C215.926 306.94 215.006 306.56 214.406 305.8C213.806 305 213.506 304.08 213.506 303.04C213.506 301.96 213.766 301.08 214.286 300.4C214.846 299.72 215.566 299.08 216.446 298.48C217.406 297.84 218.626 297.3 220.106 296.86C221.626 296.42 223.306 296.2 225.146 296.2C226.866 296.2 228.346 296.4 229.586 296.8C230.866 297.16 231.926 297.76 232.766 298.6C233.766 299.52 234.406 300.68 234.686 302.08C234.966 303.48 235.106 305.14 235.106 307.06L230.426 320.74C229.306 322.9 228.126 324.54 226.886 325.66C225.686 326.78 224.466 327.52 223.226 327.88C221.986 328.24 220.766 328.42 219.566 328.42ZM222.806 325.54C223.926 325.54 225.006 325.2 226.046 324.52C227.126 323.84 228.126 322.7 229.046 321.1L228.806 309.64C228.326 310.32 227.666 310.9 226.826 311.38C226.026 311.86 225.126 312.32 224.126 312.76C223.166 313.2 222.246 313.74 221.366 314.38C220.526 314.98 219.826 315.76 219.266 316.72C218.706 317.64 218.426 318.84 218.426 320.32C218.426 322.12 218.846 323.44 219.686 324.28C220.526 325.12 221.566 325.54 222.806 325.54ZM241.406 328.84C238.806 328.84 236.566 328.24 234.686 327.04C232.806 325.84 231.366 324.08 230.366 321.76C229.366 319.4 228.866 316.52 228.866 313.12C228.866 309.52 229.366 306.46 230.366 303.94C231.366 301.42 232.806 299.5 234.686 298.18C236.606 296.86 238.886 296.2 241.526 296.2C244.846 296.2 247.446 297.26 249.326 299.38C251.206 301.5 252.146 304.86 252.146 309.46H233.126L233.066 308.32H245.786C245.866 306.36 245.746 304.56 245.426 302.92C245.106 301.24 244.586 299.9 243.866 298.9C243.186 297.9 242.306 297.4 241.226 297.4C239.706 297.4 238.366 298.32 237.206 300.16C236.086 301.96 235.406 304.86 235.166 308.86L235.346 309.16C235.306 309.72 235.266 310.34 235.226 311.02C235.186 311.66 235.166 312.3 235.166 312.94C235.166 315.7 235.546 318.02 236.306 319.9C237.106 321.78 238.106 323.2 239.306 324.16C240.546 325.08 241.846 325.54 243.206 325.54C244.126 325.54 245.026 325.38 245.906 325.06C246.786 324.7 247.626 324.12 248.426 323.32C249.266 322.48 250.006 321.34 250.646 319.9L251.786 320.38C251.386 321.74 250.726 323.08 249.806 324.4C248.886 325.72 247.726 326.8 246.326 327.64C244.926 328.44 243.286 328.84 241.406 328.84ZM274.718 296.2C275.878 296.2 276.858 296.44 277.658 296.92C278.498 297.4 279.118 298.02 279.518 298.78C279.958 299.5 280.178 300.32 280.178 301.24C280.178 302.4 279.818 303.4 279.098 304.24C278.418 305.04 277.498 305.44 276.338 305.44C275.338 305.44 274.478 305.14 273.758 304.54C273.078 303.94 272.738 303.12 272.738 302.08C272.738 301.2 272.958 300.46 273.398 299.86C273.878 299.22 274.418 298.72 275.018 298.36C274.618 298.04 274.138 297.9 273.578 297.94C272.498 297.98 271.498 298.34 270.578 299.02C269.658 299.66 268.878 300.5 268.238 301.54C267.598 302.54 267.098 303.62 266.738 304.78C266.378 305.94 266.198 307.02 266.198 308.02V321.82C266.198 323.78 266.738 325.1 267.818 325.78C268.898 326.42 270.398 326.74 272.318 326.74V328C271.398 327.96 270.078 327.92 268.358 327.88C266.678 327.8 264.898 327.76 263.018 327.76C261.578 327.76 260.138 327.8 258.698 327.88C257.258 327.92 256.158 327.96 255.398 328V326.74C256.958 326.74 258.058 326.44 258.698 325.84C259.378 325.24 259.718 324.1 259.718 322.42V303.58C259.718 301.78 259.418 300.46 258.818 299.62C258.218 298.74 257.078 298.3 255.398 298.3V297.04C256.678 297.16 257.918 297.22 259.118 297.22C260.478 297.22 261.738 297.16 262.898 297.04C264.098 296.88 265.198 296.66 266.198 296.38V303.28C266.678 302.12 267.318 301 268.118 299.92C268.918 298.84 269.878 297.96 270.998 297.28C272.118 296.56 273.358 296.2 274.718 296.2ZM290.958 280.96V322.42C290.958 324.1 291.238 325.24 291.798 325.84C292.398 326.44 293.398 326.74 294.798 326.74V328C294.118 327.96 293.098 327.92 291.738 327.88C290.418 327.8 289.078 327.76 287.718 327.76C286.318 327.76 284.878 327.8 283.398 327.88C281.958 327.92 280.878 327.96 280.158 328V326.74C281.718 326.74 282.818 326.44 283.458 325.84C284.138 325.24 284.478 324.1 284.478 322.42V288.16C284.478 286.36 284.158 285.04 283.518 284.2C282.918 283.32 281.798 282.88 280.158 282.88V281.62C281.438 281.74 282.678 281.8 283.878 281.8C285.198 281.8 286.458 281.74 287.658 281.62C288.858 281.46 289.958 281.24 290.958 280.96ZM310.158 297.04V298.24C309.078 298.4 308.038 298.76 307.038 299.32C306.038 299.88 305.058 300.66 304.098 301.66L296.898 309.22L297.678 307.72L308.538 323.62C309.138 324.46 309.718 325.16 310.278 325.72C310.838 326.24 311.538 326.58 312.378 326.74V328C311.858 327.96 311.078 327.92 310.038 327.88C309.038 327.8 308.038 327.76 307.038 327.76C305.718 327.76 304.378 327.8 303.018 327.88C301.658 327.92 300.658 327.96 300.018 328V326.74C300.818 326.74 301.358 326.54 301.638 326.14C301.958 325.74 301.918 325.26 301.518 324.7L294.918 314.38C294.238 313.42 293.618 312.8 293.058 312.52C292.498 312.24 291.698 312.08 290.658 312.04V310.84C291.818 310.72 292.758 310.5 293.478 310.18C294.238 309.86 294.938 309.34 295.578 308.62L300.078 304.06C301.358 302.78 301.998 301.72 301.998 300.88C301.998 300 301.578 299.36 300.738 298.96C299.938 298.52 298.858 298.28 297.498 298.24V297.04C298.578 297.08 299.758 297.14 301.038 297.22C302.358 297.26 303.458 297.28 304.338 297.28C305.058 297.28 305.778 297.28 306.498 297.28C307.258 297.24 307.958 297.2 308.598 297.16C309.238 297.12 309.758 297.08 310.158 297.04ZM355.091 280.96V321.46C355.091 323.26 355.391 324.6 355.991 325.48C356.631 326.32 357.771 326.74 359.411 326.74V328C358.171 327.88 356.931 327.82 355.691 327.82C354.331 327.82 353.051 327.88 351.851 328C350.691 328.12 349.611 328.34 348.611 328.66V288.16C348.611 286.36 348.291 285.04 347.651 284.2C347.051 283.32 345.931 282.88 344.291 282.88V281.62C345.571 281.74 346.811 281.8 348.011 281.8C349.331 281.8 350.591 281.74 351.791 281.62C352.991 281.46 354.091 281.24 355.091 280.96ZM341.591 296.2C343.351 296.2 344.951 296.58 346.391 297.34C347.871 298.1 348.911 299.38 349.511 301.18L348.791 301.84C348.231 300.4 347.411 299.36 346.331 298.72C345.251 298.04 344.031 297.7 342.671 297.7C340.391 297.7 338.531 298.92 337.091 301.36C335.651 303.76 334.951 307.48 334.991 312.52C334.991 315.84 335.271 318.56 335.831 320.68C336.391 322.76 337.211 324.3 338.291 325.3C339.411 326.3 340.751 326.8 342.311 326.8C343.871 326.8 345.271 326.14 346.511 324.82C347.791 323.5 348.551 321.6 348.791 319.12L349.331 320.38C348.931 323.1 347.971 325.2 346.451 326.68C344.931 328.12 342.891 328.84 340.331 328.84C337.891 328.84 335.731 328.26 333.851 327.1C332.011 325.9 330.591 324.1 329.591 321.7C328.591 319.26 328.091 316.2 328.091 312.52C328.091 308.88 328.691 305.86 329.891 303.46C331.131 301.02 332.771 299.2 334.811 298C336.851 296.8 339.111 296.2 341.591 296.2ZM376.446 296.2C379.966 296.2 382.726 297.26 384.726 299.38C386.726 301.5 387.726 304.86 387.726 309.46H367.026L366.906 308.32H381.366C381.406 306.36 381.246 304.56 380.886 302.92C380.526 301.24 379.966 299.9 379.206 298.9C378.446 297.9 377.446 297.4 376.206 297.4C374.486 297.4 372.986 298.32 371.706 300.16C370.466 301.96 369.706 304.86 369.426 308.86L369.606 309.16C369.566 309.72 369.526 310.34 369.486 311.02C369.446 311.66 369.426 312.3 369.426 312.94C369.426 315.7 369.846 318.02 370.686 319.9C371.526 321.78 372.626 323.2 373.986 324.16C375.346 325.08 376.726 325.54 378.126 325.54C379.206 325.54 380.246 325.38 381.246 325.06C382.286 324.7 383.266 324.12 384.186 323.32C385.106 322.48 385.926 321.34 386.646 319.9L387.846 320.38C387.366 321.74 386.626 323.08 385.626 324.4C384.626 325.72 383.346 326.8 381.786 327.64C380.226 328.44 378.406 328.84 376.326 328.84C373.526 328.84 371.086 328.22 369.006 326.98C366.926 325.7 365.326 323.88 364.206 321.52C363.086 319.16 362.526 316.36 362.526 313.12C362.526 309.56 363.106 306.52 364.266 304C365.426 301.48 367.046 299.56 369.126 298.24C371.246 296.88 373.686 296.2 376.446 296.2ZM410.402 296.2C411.562 296.2 412.542 296.44 413.342 296.92C414.182 297.4 414.802 298.02 415.202 298.78C415.642 299.5 415.862 300.32 415.862 301.24C415.862 302.4 415.502 303.4 414.782 304.24C414.102 305.04 413.182 305.44 412.022 305.44C411.022 305.44 410.162 305.14 409.442 304.54C408.762 303.94 408.422 303.12 408.422 302.08C408.422 301.2 408.642 300.46 409.082 299.86C409.562 299.22 410.102 298.72 410.702 298.36C410.302 298.04 409.822 297.9 409.262 297.94C408.182 297.98 407.182 298.34 406.262 299.02C405.342 299.66 404.562 300.5 403.922 301.54C403.282 302.54 402.782 303.62 402.422 304.78C402.062 305.94 401.882 307.02 401.882 308.02V321.82C401.882 323.78 402.422 325.1 403.502 325.78C404.582 326.42 406.082 326.74 408.002 326.74V328C407.082 327.96 405.762 327.92 404.042 327.88C402.362 327.8 400.582 327.76 398.702 327.76C397.262 327.76 395.822 327.8 394.382 327.88C392.942 327.92 391.842 327.96 391.082 328V326.74C392.642 326.74 393.742 326.44 394.382 325.84C395.062 325.24 395.402 324.1 395.402 322.42V303.58C395.402 301.78 395.102 300.46 394.502 299.62C393.902 298.74 392.762 298.3 391.082 298.3V297.04C392.362 297.16 393.602 297.22 394.802 297.22C396.162 297.22 397.422 297.16 398.582 297.04C399.782 296.88 400.882 296.66 401.882 296.38V303.28C402.362 302.12 403.002 301 403.802 299.92C404.602 298.84 405.562 297.96 406.682 297.28C407.802 296.56 409.042 296.2 410.402 296.2ZM449.03 296.2C452.23 296.2 454.89 297.54 457.01 300.22C459.17 302.86 460.25 306.88 460.25 312.28C460.25 316.08 459.63 319.2 458.39 321.64C457.15 324.08 455.49 325.9 453.41 327.1C451.37 328.26 449.15 328.84 446.75 328.84C444.87 328.84 443.07 328.38 441.35 327.46C439.63 326.5 438.31 325.06 437.39 323.14L438.47 323.44C439.35 324.8 440.45 325.82 441.77 326.5C443.09 327.18 444.43 327.52 445.79 327.52C448.31 327.52 450.19 326.3 451.43 323.86C452.71 321.42 453.35 317.66 453.35 312.58C453.35 309.26 453.09 306.54 452.57 304.42C452.09 302.3 451.35 300.76 450.35 299.8C449.39 298.8 448.17 298.3 446.69 298.3C444.97 298.3 443.39 299.04 441.95 300.52C440.51 302 439.65 304.14 439.37 306.94L438.77 305.68C439.33 302.68 440.53 300.36 442.37 298.72C444.25 297.04 446.47 296.2 449.03 296.2ZM439.73 281.02V325.54C439.05 325.78 438.35 326.08 437.63 326.44C436.91 326.8 436.23 327.2 435.59 327.64C434.95 328.04 434.35 328.48 433.79 328.96L432.83 328.48C432.99 327.92 433.09 327.36 433.13 326.8C433.21 326.24 433.25 325.66 433.25 325.06V288.22C433.25 286.42 432.93 285.1 432.29 284.26C431.69 283.38 430.57 282.94 428.93 282.94V281.68C430.21 281.8 431.45 281.86 432.65 281.86C433.97 281.86 435.23 281.8 436.43 281.68C437.63 281.52 438.73 281.3 439.73 281.02ZM483.188 296.2C484.348 296.2 485.328 296.44 486.128 296.92C486.968 297.4 487.588 298.02 487.988 298.78C488.428 299.5 488.648 300.32 488.648 301.24C488.648 302.4 488.288 303.4 487.568 304.24C486.888 305.04 485.968 305.44 484.808 305.44C483.808 305.44 482.948 305.14 482.228 304.54C481.548 303.94 481.208 303.12 481.208 302.08C481.208 301.2 481.428 300.46 481.868 299.86C482.348 299.22 482.888 298.72 483.488 298.36C483.088 298.04 482.608 297.9 482.048 297.94C480.968 297.98 479.968 298.34 479.048 299.02C478.128 299.66 477.348 300.5 476.708 301.54C476.068 302.54 475.568 303.62 475.208 304.78C474.848 305.94 474.668 307.02 474.668 308.02V321.82C474.668 323.78 475.208 325.1 476.288 325.78C477.368 326.42 478.868 326.74 480.788 326.74V328C479.868 327.96 478.548 327.92 476.828 327.88C475.148 327.8 473.368 327.76 471.488 327.76C470.048 327.76 468.608 327.8 467.168 327.88C465.728 327.92 464.628 327.96 463.868 328V326.74C465.428 326.74 466.528 326.44 467.168 325.84C467.848 325.24 468.188 324.1 468.188 322.42V303.58C468.188 301.78 467.888 300.46 467.288 299.62C466.688 298.74 465.548 298.3 463.868 298.3V297.04C465.148 297.16 466.388 297.22 467.588 297.22C468.948 297.22 470.208 297.16 471.368 297.04C472.568 296.88 473.668 296.66 474.668 296.38V303.28C475.148 302.12 475.788 301 476.588 299.92C477.388 298.84 478.348 297.96 479.468 297.28C480.588 296.56 481.828 296.2 483.188 296.2ZM497.537 281.92C498.777 281.92 499.817 282.32 500.657 283.12C501.497 283.88 501.917 284.84 501.917 286C501.917 287.16 501.497 288.14 500.657 288.94C499.817 289.7 498.777 290.08 497.537 290.08C496.297 290.08 495.257 289.7 494.417 288.94C493.577 288.14 493.157 287.16 493.157 286C493.157 284.84 493.577 283.88 494.417 283.12C495.257 282.32 496.297 281.92 497.537 281.92ZM501.137 296.38V322.42C501.137 324.1 501.457 325.24 502.097 325.84C502.777 326.44 503.897 326.74 505.457 326.74V328C504.777 327.96 503.717 327.92 502.277 327.88C500.877 327.8 499.437 327.76 497.957 327.76C496.557 327.76 495.117 327.8 493.637 327.88C492.157 327.92 491.057 327.96 490.337 328V326.74C491.897 326.74 492.997 326.44 493.637 325.84C494.317 325.24 494.657 324.1 494.657 322.42V303.58C494.657 301.78 494.357 300.46 493.757 299.62C493.157 298.74 492.017 298.3 490.337 298.3V297.04C491.617 297.16 492.857 297.22 494.057 297.22C495.417 297.22 496.677 297.16 497.837 297.04C499.037 296.88 500.137 296.66 501.137 296.38ZM528.545 296.2C530.145 296.2 531.445 296.42 532.445 296.86C533.485 297.26 534.345 297.82 535.025 298.54C535.745 299.3 536.245 300.28 536.525 301.48C536.845 302.68 537.005 304.3 537.005 306.34V322.42C537.005 324.1 537.325 325.24 537.965 325.84C538.645 326.44 539.765 326.74 541.325 326.74V328C540.645 327.96 539.585 327.92 538.145 327.88C536.705 327.8 535.285 327.76 533.885 327.76C532.525 327.76 531.165 327.8 529.805 327.88C528.485 327.92 527.485 327.96 526.805 328V326.74C528.165 326.74 529.125 326.44 529.685 325.84C530.245 325.24 530.525 324.1 530.525 322.42V304.66C530.525 303.5 530.425 302.46 530.225 301.54C530.025 300.58 529.605 299.82 528.965 299.26C528.325 298.66 527.365 298.36 526.085 298.36C524.605 298.36 523.285 298.78 522.125 299.62C521.005 300.46 520.105 301.62 519.425 303.1C518.785 304.54 518.465 306.16 518.465 307.96V322.42C518.465 324.1 518.745 325.24 519.305 325.84C519.905 326.44 520.865 326.74 522.185 326.74V328C521.545 327.96 520.565 327.92 519.245 327.88C517.965 327.8 516.625 327.76 515.225 327.76C513.865 327.76 512.445 327.8 510.965 327.88C509.485 327.92 508.385 327.96 507.665 328V326.74C509.225 326.74 510.325 326.44 510.965 325.84C511.645 325.24 511.985 324.1 511.985 322.42V303.58C511.985 301.78 511.685 300.46 511.085 299.62C510.485 298.74 509.345 298.3 507.665 298.3V297.04C508.945 297.16 510.185 297.22 511.385 297.22C512.745 297.22 514.005 297.16 515.165 297.04C516.365 296.88 517.465 296.66 518.465 296.38V302.92C519.505 300.44 520.925 298.7 522.725 297.7C524.565 296.7 526.505 296.2 528.545 296.2ZM553.91 339.28C551.67 339.28 549.59 339.06 547.67 338.62C545.79 338.18 544.27 337.5 543.11 336.58C541.99 335.7 541.43 334.56 541.43 333.16C541.43 331.84 541.99 330.68 543.11 329.68C544.23 328.68 545.81 327.92 547.85 327.4L548.27 328.36C547.43 328.72 546.77 329.3 546.29 330.1C545.85 330.9 545.63 331.78 545.63 332.74C545.63 334.5 546.45 335.86 548.09 336.82C549.73 337.78 551.89 338.26 554.57 338.26C556.37 338.26 558.07 338.02 559.67 337.54C561.31 337.1 562.63 336.36 563.63 335.32C564.67 334.28 565.19 332.94 565.19 331.3C565.19 330.02 564.73 328.94 563.81 328.06C562.89 327.22 561.07 326.8 558.35 326.8H554.15C552.75 326.8 551.45 326.68 550.25 326.44C549.05 326.2 548.07 325.74 547.31 325.06C546.59 324.34 546.23 323.34 546.23 322.06C546.23 320.62 546.83 319.26 548.03 317.98C549.23 316.7 551.25 315.44 554.09 314.2L554.81 314.74C553.65 315.38 552.61 316.04 551.69 316.72C550.81 317.36 550.37 318.16 550.37 319.12C550.37 320.4 551.29 321.04 553.13 321.04H560.27C562.15 321.04 563.85 321.3 565.37 321.82C566.89 322.3 568.11 323.08 569.03 324.16C569.95 325.24 570.41 326.66 570.41 328.42C570.41 330.3 569.79 332.06 568.55 333.7C567.35 335.38 565.53 336.72 563.09 337.72C560.65 338.76 557.59 339.28 553.91 339.28ZM554.27 315.22C552.23 315.22 550.37 314.9 548.69 314.26C547.01 313.58 545.69 312.54 544.73 311.14C543.77 309.74 543.29 307.94 543.29 305.74C543.29 303.54 543.77 301.74 544.73 300.34C545.69 298.9 547.01 297.86 548.69 297.22C550.37 296.54 552.23 296.2 554.27 296.2C556.39 296.2 558.27 296.54 559.91 297.22C561.55 297.86 562.85 298.9 563.81 300.34C564.77 301.74 565.25 303.54 565.25 305.74C565.25 307.94 564.77 309.74 563.81 311.14C562.85 312.54 561.55 313.58 559.91 314.26C558.27 314.9 556.39 315.22 554.27 315.22ZM554.27 314.14C555.67 314.14 556.75 313.54 557.51 312.34C558.27 311.14 558.65 308.94 558.65 305.74C558.65 302.54 558.27 300.34 557.51 299.14C556.75 297.9 555.67 297.28 554.27 297.28C552.95 297.28 551.89 297.9 551.09 299.14C550.29 300.34 549.89 302.54 549.89 305.74C549.89 308.94 550.29 311.14 551.09 312.34C551.89 313.54 552.95 314.14 554.27 314.14ZM563.15 301.24L562.07 300.82C562.63 299.42 563.59 298.2 564.95 297.16C566.31 296.12 567.73 295.6 569.21 295.6C570.33 295.6 571.21 295.92 571.85 296.56C572.53 297.16 572.87 298.02 572.87 299.14C572.87 300.38 572.53 301.26 571.85 301.78C571.21 302.3 570.53 302.56 569.81 302.56C569.17 302.56 568.57 302.34 568.01 301.9C567.49 301.46 567.19 300.78 567.11 299.86C567.03 298.9 567.33 297.68 568.01 296.2L568.67 296.44C567.07 297.08 565.89 297.76 565.13 298.48C564.41 299.16 563.75 300.08 563.15 301.24ZM588.315 296.2C591.835 296.2 594.595 297.26 596.595 299.38C598.595 301.5 599.595 304.86 599.595 309.46H578.895L578.775 308.32H593.235C593.275 306.36 593.115 304.56 592.755 302.92C592.395 301.24 591.835 299.9 591.075 298.9C590.315 297.9 589.315 297.4 588.075 297.4C586.355 297.4 584.855 298.32 583.575 300.16C582.335 301.96 581.575 304.86 581.295 308.86L581.475 309.16C581.435 309.72 581.395 310.34 581.355 311.02C581.315 311.66 581.295 312.3 581.295 312.94C581.295 315.7 581.715 318.02 582.555 319.9C583.395 321.78 584.495 323.2 585.855 324.16C587.215 325.08 588.595 325.54 589.995 325.54C591.075 325.54 592.115 325.38 593.115 325.06C594.155 324.7 595.135 324.12 596.055 323.32C596.975 322.48 597.795 321.34 598.515 319.9L599.715 320.38C599.235 321.74 598.495 323.08 597.495 324.4C596.495 325.72 595.215 326.8 593.655 327.64C592.095 328.44 590.275 328.84 588.195 328.84C585.395 328.84 582.955 328.22 580.875 326.98C578.795 325.7 577.195 323.88 576.075 321.52C574.955 319.16 574.395 316.36 574.395 313.12C574.395 309.56 574.975 306.52 576.135 304C577.295 301.48 578.915 299.56 580.995 298.24C583.115 296.88 585.555 296.2 588.315 296.2ZM622.271 296.2C623.431 296.2 624.411 296.44 625.211 296.92C626.051 297.4 626.671 298.02 627.071 298.78C627.511 299.5 627.731 300.32 627.731 301.24C627.731 302.4 627.371 303.4 626.651 304.24C625.971 305.04 625.051 305.44 623.891 305.44C622.891 305.44 622.031 305.14 621.311 304.54C620.631 303.94 620.291 303.12 620.291 302.08C620.291 301.2 620.511 300.46 620.951 299.86C621.431 299.22 621.971 298.72 622.571 298.36C622.171 298.04 621.691 297.9 621.131 297.94C620.051 297.98 619.051 298.34 618.131 299.02C617.211 299.66 616.431 300.5 615.791 301.54C615.151 302.54 614.651 303.62 614.291 304.78C613.931 305.94 613.751 307.02 613.751 308.02V321.82C613.751 323.78 614.291 325.1 615.371 325.78C616.451 326.42 617.951 326.74 619.871 326.74V328C618.951 327.96 617.631 327.92 615.911 327.88C614.231 327.8 612.451 327.76 610.571 327.76C609.131 327.76 607.691 327.8 606.251 327.88C604.811 327.92 603.711 327.96 602.951 328V326.74C604.511 326.74 605.611 326.44 606.251 325.84C606.931 325.24 607.271 324.1 607.271 322.42V303.58C607.271 301.78 606.971 300.46 606.371 299.62C605.771 298.74 604.631 298.3 602.951 298.3V297.04C604.231 297.16 605.471 297.22 606.671 297.22C608.031 297.22 609.291 297.16 610.451 297.04C611.651 296.88 612.751 296.66 613.751 296.38V303.28C614.231 302.12 614.871 301 615.671 299.92C616.471 298.84 617.431 297.96 618.551 297.28C619.671 296.56 620.911 296.2 622.271 296.2ZM300.428 387.04V388.24C299.668 388.36 298.948 388.76 298.268 389.44C297.628 390.08 297.028 391.2 296.468 392.8L286.988 418.24C286.668 418.24 286.328 418.24 285.968 418.24C285.648 418.24 285.328 418.24 285.008 418.24L274.088 391.66C273.448 390.1 272.808 389.16 272.168 388.84C271.568 388.48 271.048 388.3 270.608 388.3V387.04C271.568 387.12 272.548 387.2 273.548 387.28C274.588 387.32 275.728 387.34 276.968 387.34C278.208 387.34 279.508 387.32 280.868 387.28C282.268 387.2 283.568 387.12 284.768 387.04V388.3C283.808 388.3 282.948 388.36 282.188 388.48C281.468 388.6 280.988 388.96 280.748 389.56C280.548 390.12 280.688 391.1 281.168 392.5L288.548 411.1L288.068 411.58L294.248 395.2C294.848 393.6 295.088 392.32 294.968 391.36C294.848 390.36 294.428 389.62 293.708 389.14C292.988 388.62 291.948 388.32 290.588 388.24V387.04C291.268 387.08 291.888 387.12 292.448 387.16C293.048 387.16 293.608 387.18 294.128 387.22C294.688 387.22 295.268 387.22 295.868 387.22C296.748 387.22 297.568 387.2 298.328 387.16C299.128 387.12 299.828 387.08 300.428 387.04ZM309.507 418.42C307.827 418.42 306.387 418.1 305.187 417.46C303.987 416.82 303.087 415.94 302.487 414.82C301.887 413.7 301.587 412.42 301.587 410.98C301.587 409.22 301.987 407.8 302.787 406.72C303.587 405.6 304.607 404.7 305.847 404.02C307.127 403.34 308.467 402.78 309.867 402.34C311.307 401.86 312.647 401.42 313.887 401.02C315.167 400.58 316.207 400.08 317.007 399.52C317.847 398.96 318.267 398.22 318.267 397.3V393.22C318.267 391.78 318.027 390.64 317.547 389.8C317.107 388.92 316.487 388.3 315.687 387.94C314.927 387.58 314.007 387.4 312.927 387.4C312.007 387.4 311.027 387.54 309.987 387.82C308.947 388.06 308.127 388.56 307.527 389.32C308.407 389.56 309.127 390.04 309.687 390.76C310.287 391.44 310.587 392.3 310.587 393.34C310.587 394.46 310.207 395.34 309.447 395.98C308.727 396.62 307.807 396.94 306.687 396.94C305.447 396.94 304.527 396.56 303.927 395.8C303.327 395 303.027 394.08 303.027 393.04C303.027 391.96 303.287 391.08 303.807 390.4C304.367 389.72 305.087 389.08 305.967 388.48C306.927 387.84 308.147 387.3 309.627 386.86C311.147 386.42 312.827 386.2 314.667 386.2C316.387 386.2 317.867 386.4 319.107 386.8C320.387 387.16 321.447 387.76 322.287 388.6C323.287 389.52 323.947 390.68 324.267 392.08C324.587 393.44 324.747 395.1 324.747 397.06V413.62C324.747 414.62 324.867 415.34 325.107 415.78C325.387 416.18 325.827 416.38 326.427 416.38C326.827 416.38 327.207 416.28 327.567 416.08C327.967 415.88 328.427 415.58 328.947 415.18L329.547 416.2C328.707 416.88 327.847 417.42 326.967 417.82C326.127 418.22 325.047 418.42 323.727 418.42C322.447 418.42 321.407 418.22 320.607 417.82C319.807 417.42 319.207 416.84 318.807 416.08C318.447 415.32 318.267 414.38 318.267 413.26C317.227 414.94 315.987 416.22 314.547 417.1C313.107 417.98 311.427 418.42 309.507 418.42ZM312.387 415.54C313.507 415.54 314.547 415.22 315.507 414.58C316.507 413.94 317.427 412.98 318.267 411.7V399.76C317.827 400.4 317.187 400.96 316.347 401.44C315.507 401.88 314.607 402.34 313.647 402.82C312.687 403.3 311.767 403.86 310.887 404.5C310.047 405.1 309.347 405.88 308.787 406.84C308.227 407.8 307.947 409.02 307.947 410.5C307.947 412.06 308.347 413.3 309.147 414.22C309.947 415.1 311.027 415.54 312.387 415.54ZM350 386.2C351.16 386.2 352.14 386.44 352.94 386.92C353.78 387.4 354.4 388.02 354.8 388.78C355.24 389.5 355.46 390.32 355.46 391.24C355.46 392.4 355.1 393.4 354.38 394.24C353.7 395.04 352.78 395.44 351.62 395.44C350.62 395.44 349.76 395.14 349.04 394.54C348.36 393.94 348.02 393.12 348.02 392.08C348.02 391.2 348.24 390.46 348.68 389.86C349.16 389.22 349.7 388.72 350.3 388.36C349.9 388.04 349.42 387.9 348.86 387.94C347.78 387.98 346.78 388.34 345.86 389.02C344.94 389.66 344.16 390.5 343.52 391.54C342.88 392.54 342.38 393.62 342.02 394.78C341.66 395.94 341.48 397.02 341.48 398.02V411.82C341.48 413.78 342.02 415.1 343.1 415.78C344.18 416.42 345.68 416.74 347.6 416.74V418C346.68 417.96 345.36 417.92 343.64 417.88C341.96 417.8 340.18 417.76 338.3 417.76C336.86 417.76 335.42 417.8 333.98 417.88C332.54 417.92 331.44 417.96 330.68 418V416.74C332.24 416.74 333.34 416.44 333.98 415.84C334.66 415.24 335 414.1 335 412.42V393.58C335 391.78 334.7 390.46 334.1 389.62C333.5 388.74 332.36 388.3 330.68 388.3V387.04C331.96 387.16 333.2 387.22 334.4 387.22C335.76 387.22 337.02 387.16 338.18 387.04C339.38 386.88 340.48 386.66 341.48 386.38V393.28C341.96 392.12 342.6 391 343.4 389.92C344.2 388.84 345.16 387.96 346.28 387.28C347.4 386.56 348.64 386.2 350 386.2ZM377.609 386.2C379.129 386.2 380.409 386.42 381.449 386.86C382.489 387.26 383.329 387.82 383.969 388.54C384.689 389.3 385.189 390.32 385.469 391.6C385.749 392.84 385.889 394.42 385.889 396.34V412.42C385.889 414.1 386.209 415.24 386.849 415.84C387.489 416.44 388.569 416.74 390.089 416.74V418C389.409 417.96 388.349 417.92 386.909 417.88C385.509 417.8 384.129 417.76 382.769 417.76C381.409 417.76 380.069 417.8 378.749 417.88C377.469 417.92 376.489 417.96 375.809 418V416.74C377.129 416.74 378.049 416.44 378.569 415.84C379.129 415.24 379.409 414.1 379.409 412.42V394.66C379.409 393.5 379.329 392.46 379.169 391.54C379.009 390.58 378.629 389.82 378.029 389.26C377.469 388.66 376.569 388.36 375.329 388.36C373.929 388.36 372.669 388.78 371.549 389.62C370.469 390.46 369.589 391.62 368.909 393.1C368.269 394.54 367.949 396.16 367.949 397.96V412.42C367.949 414.1 368.229 415.24 368.789 415.84C369.349 416.44 370.269 416.74 371.549 416.74V418C370.909 417.96 369.949 417.92 368.669 417.88C367.389 417.8 366.069 417.76 364.709 417.76C363.349 417.76 361.929 417.8 360.449 417.88C358.969 417.92 357.869 417.96 357.149 418V416.74C358.709 416.74 359.809 416.44 360.449 415.84C361.129 415.24 361.469 414.1 361.469 412.42V393.58C361.469 391.78 361.169 390.46 360.569 389.62C359.969 388.74 358.829 388.3 357.149 388.3V387.04C358.429 387.16 359.669 387.22 360.869 387.22C362.229 387.22 363.489 387.16 364.649 387.04C365.849 386.88 366.949 386.66 367.949 386.38V392.92C368.989 390.52 370.369 388.8 372.089 387.76C373.849 386.72 375.689 386.2 377.609 386.2ZM395.669 386.2C397.189 386.2 398.469 386.42 399.509 386.86C400.549 387.26 401.389 387.82 402.029 388.54C402.749 389.3 403.249 390.32 403.529 391.6C403.809 392.84 403.949 394.42 403.949 396.34V412.42C403.949 414.1 404.269 415.24 404.909 415.84C405.589 416.44 406.709 416.74 408.269 416.74V418C407.589 417.96 406.529 417.92 405.089 417.88C403.649 417.8 402.229 417.76 400.829 417.76C399.469 417.76 398.129 417.8 396.809 417.88C395.529 417.92 394.549 417.96 393.869 418V416.74C395.189 416.74 396.109 416.44 396.629 415.84C397.189 415.24 397.469 414.1 397.469 412.42V394.66C397.469 393.5 397.389 392.46 397.229 391.54C397.069 390.58 396.689 389.82 396.089 389.26C395.489 388.66 394.549 388.36 393.269 388.36C391.869 388.36 390.609 388.8 389.489 389.68C388.409 390.52 387.529 391.68 386.849 393.16C386.209 394.6 385.889 396.22 385.889 398.02L385.649 393.04C386.729 390.4 388.169 388.6 389.969 387.64C391.809 386.68 393.709 386.2 395.669 386.2ZM424.982 386.2C428.502 386.2 431.262 387.26 433.262 389.38C435.262 391.5 436.262 394.86 436.262 399.46H415.562L415.442 398.32H429.902C429.942 396.36 429.782 394.56 429.422 392.92C429.062 391.24 428.502 389.9 427.742 388.9C426.982 387.9 425.982 387.4 424.742 387.4C423.022 387.4 421.522 388.32 420.242 390.16C419.002 391.96 418.242 394.86 417.962 398.86L418.142 399.16C418.102 399.72 418.062 400.34 418.022 401.02C417.982 401.66 417.962 402.3 417.962 402.94C417.962 405.7 418.382 408.02 419.222 409.9C420.062 411.78 421.162 413.2 422.522 414.16C423.882 415.08 425.262 415.54 426.662 415.54C427.742 415.54 428.782 415.38 429.782 415.06C430.822 414.7 431.802 414.12 432.722 413.32C433.642 412.48 434.462 411.34 435.182 409.9L436.382 410.38C435.902 411.74 435.162 413.08 434.162 414.4C433.162 415.72 431.882 416.8 430.322 417.64C428.762 418.44 426.942 418.84 424.862 418.84C422.062 418.84 419.622 418.22 417.542 416.98C415.462 415.7 413.862 413.88 412.742 411.52C411.622 409.16 411.062 406.36 411.062 403.12C411.062 399.56 411.642 396.52 412.802 394C413.962 391.48 415.582 389.56 417.662 388.24C419.782 386.88 422.222 386.2 424.982 386.2Z" fill="#59423A"/>
</svg>
